<svg width="180" height="284" viewBox="0 0 180 284" fill="none" xmlns="http://www.w3.org/2000/svg">
<path opacity="0.5" fill-rule="evenodd" clip-rule="evenodd" d="M180 168.041L90 284L0 168.041L90 221.254L180 168.041ZM90 0L180 147.567L90 198.207L0 147.567L90 0Z" fill="#78836E"/>
<path fill-rule="evenodd" clip-rule="evenodd" d="M90 284V221.475L0 168.449L90 284Z" fill="white"/>
<path fill-rule="evenodd" clip-rule="evenodd" d="M90 284V221.475L180 168.449L90 284Z" fill="#DBE1DC"/>
<path fill-rule="evenodd" clip-rule="evenodd" d="M90 1L90 198.51L0 148.047L90 1Z" fill="white"/>
<path fill-rule="evenodd" clip-rule="evenodd" d="M90 1L90 198.51L180 148.047L90 1Z" fill="#DBE1DC"/>
<path fill-rule="evenodd" clip-rule="evenodd" d="M90 108.988V198.51L180 148.047L90 108.988Z" fill="#B8C2BA"/>
<path fill-rule="evenodd" clip-rule="evenodd" d="M90 108.988V198.51L0 148.047L90 108.988Z" fill="#D3DCD5"/>
</svg>
