<svg width="80" height="70" viewBox="0 0 80 70" fill="none" xmlns="http://www.w3.org/2000/svg">
<path fill-rule="evenodd" clip-rule="evenodd" d="M33.3106 22.4219C33.3106 7.47396 27.7588 0 16.6553 0C12.4687 0 9.10125 1.1849 6.5529 3.55469C4.00455 5.92448 2.73038 9.38802 2.73038 13.9453C2.73038 17.7734 4.09556 20.9635 6.82594 23.5156C9.37429 26.0677 12.7418 27.3438 16.9283 27.3438C18.0205 27.3438 19.2947 27.1615 20.7509 26.7969C19.8407 40.4688 12.9238 51.6797 0 60.4297L6.00683 70C24.2093 59.974 33.3106 44.1146 33.3106 22.4219ZM80 22.4219C80 7.47396 74.4482 0 63.3447 0C59.1581 0 55.7907 1.1849 53.2423 3.55469C50.876 5.92448 49.6928 9.38802 49.6928 13.9453C49.6928 17.9557 50.967 21.1458 53.5154 23.5156C56.0637 26.0677 59.4312 27.3438 63.6177 27.3438C64.8919 27.3438 66.2571 27.1615 67.7133 26.7969C66.6212 40.651 59.6132 51.862 46.6894 60.4297L52.6962 70C70.8988 59.974 80 44.1146 80 22.4219Z" fill="white"/>
</svg>
