<svg width="200" height="191" viewBox="0 0 200 191" fill="none" xmlns="http://www.w3.org/2000/svg">
<path fill-rule="evenodd" clip-rule="evenodd" d="M62.5231 179.702V189.729C62.5231 190.183 62.1333 190.514 61.7436 190.514C61.2923 190.514 60.9641 190.173 60.9641 189.729V179.702C60.9641 176.322 59.0667 172.942 55.3231 172.942C50.5231 172.942 48.4513 177.17 48.7282 181.501C48.7282 181.569 48.7465 181.777 48.7612 181.944C48.7712 182.057 48.7795 182.152 48.7795 182.172V189.698C48.7795 190.08 48.5231 190.431 48.1538 190.494C47.6308 190.576 47.2205 190.214 47.2205 189.718V156.786C47.2205 156.393 47.559 156 48 156C48.4513 156 48.7795 156.393 48.7795 156.786V175.423C50.1231 173.004 52.5231 171.371 55.3128 171.371C59.8974 171.371 62.5231 175.423 62.5231 179.702ZM37.7744 172.487C37.7744 172.094 37.4462 171.701 36.9949 171.701H32.8103V165.623C32.8103 165.127 32.4 164.766 31.8769 164.848C31.5077 164.91 31.2513 165.262 31.2513 165.644V171.701H27.2308C26.7897 171.701 26.4513 172.094 26.4513 172.487C26.4513 172.931 26.7795 173.273 27.2308 173.273H31.2513V189.822C31.2513 190.214 31.5795 190.607 32.0308 190.607C32.4718 190.607 32.8103 190.214 32.8103 189.822V173.273H36.9949C37.4359 173.273 37.7744 172.942 37.7744 172.487ZM18.0513 181.087C18.0513 181.532 17.6821 181.893 17.241 181.893H1.63077C2.02051 185.78 4.92308 189.325 9.00513 189.325C11.7949 189.325 13.8667 188.25 15.4256 186.007C15.6513 185.697 15.9897 185.501 16.4205 185.687C16.6564 185.79 16.8205 186.007 16.8615 186.255C16.9026 186.514 16.8308 186.659 16.759 186.803C15.1897 189.563 12.0615 190.917 8.99487 190.917C3.74359 190.917 0 186.183 0 181.118C0 176.053 3.74359 171.319 8.99487 171.319C14.2462 171.309 18.041 176.032 18.0513 181.087ZM16.3795 180.322C16.041 176.436 13.0872 172.89 9.00513 172.89C4.92308 172.89 2.02051 176.436 1.63077 180.322H16.3795ZM89.7026 181.893C90.1436 181.893 90.5128 181.532 90.5128 181.087C90.5026 176.032 86.7077 171.309 81.4462 171.319C76.1949 171.319 72.4513 176.053 72.4513 181.118C72.4513 186.183 76.1949 190.917 81.4462 190.917C84.5128 190.917 87.641 189.563 89.2103 186.803C89.2821 186.659 89.3538 186.514 89.3128 186.255C89.2718 186.007 89.1077 185.79 88.8718 185.687C88.441 185.501 88.1026 185.697 87.8769 186.007C86.3179 188.25 84.2461 189.325 81.4564 189.325C77.3744 189.325 74.4718 185.78 74.082 181.893H89.7026ZM88.8308 180.322C88.4923 176.436 85.5385 172.89 81.4564 172.89C77.3744 172.89 74.4718 176.436 74.0821 180.322H88.8308ZM108.944 173.283C109.395 173.221 109.672 172.942 109.672 172.435C109.672 171.991 109.221 171.701 108.831 171.712C106.154 171.712 103.579 173.8 102.297 175.991V172.497C102.297 172.001 101.887 171.639 101.364 171.722C100.995 171.784 100.738 172.136 100.738 172.518V189.667C100.738 190.163 101.149 190.525 101.672 190.442C102.041 190.38 102.297 190.028 102.297 189.646V182.121C102.297 177.728 104.359 173.955 108.944 173.283ZM135.313 181.087C135.313 181.532 134.944 181.893 134.503 181.893H118.892C119.282 185.78 122.185 189.325 126.267 189.325C129.056 189.325 131.128 188.25 132.687 186.007C132.913 185.697 133.251 185.501 133.682 185.687C133.918 185.79 134.082 186.007 134.123 186.255C134.164 186.514 134.092 186.659 134.021 186.803C132.451 189.563 129.323 190.917 126.256 190.917C121.005 190.917 117.262 186.183 117.262 181.118C117.262 176.053 121.005 171.319 126.256 171.319C131.508 171.309 135.303 176.032 135.313 181.087ZM126.267 172.89C130.349 172.89 133.303 176.436 133.641 180.322H118.892C119.282 176.436 122.185 172.89 126.267 172.89ZM160.513 172.632V189.822C160.513 190.276 160.123 190.607 159.733 190.607C159.282 190.607 158.954 190.266 158.954 189.822V186.555C157.672 189.15 155.374 191 152.472 191C147.836 191 145.262 186.948 145.262 182.669V172.59C145.262 172.198 145.6 171.805 146.041 171.805C146.492 171.805 146.821 172.198 146.821 172.59V182.669C146.821 186.049 148.718 189.429 152.462 189.429C157.713 189.429 158.944 184.478 158.944 179.009V172.59C158.944 172.136 159.395 171.67 159.949 171.836C160.287 171.949 160.513 172.28 160.513 172.632ZM200 189.718V179.64C200 175.361 197.374 171.371 192.79 171.371C189.549 171.371 187.036 173.459 185.754 176.384C184.749 173.397 182.287 171.371 179.108 171.371C176.318 171.371 173.918 172.952 172.574 175.371V172.497C172.574 172.001 172.164 171.639 171.641 171.722C171.272 171.784 171.015 172.136 171.015 172.518V189.718C171.015 190.214 171.426 190.576 171.949 190.493C172.328 190.431 172.585 190.08 172.585 189.698V182.121C172.62 182.086 172.607 181.969 172.595 181.862C172.59 181.812 172.585 181.764 172.585 181.728C172.41 176.715 174.369 172.942 179.118 172.942C182.862 172.942 184.759 176.26 184.759 179.64V189.718C184.759 190.163 185.087 190.504 185.538 190.504C185.928 190.504 186.318 190.173 186.318 189.718V181.945C186.318 178.007 188.103 172.942 192.8 172.942C196.544 172.942 198.441 176.26 198.441 179.64V189.718C198.441 190.163 198.769 190.504 199.221 190.504C199.61 190.504 200 190.173 200 189.718Z" fill="white"/>
<path opacity="0.5" d="M100 142.926L35.6969 106.783L100 1.45953L164.303 106.783L100 142.926Z" fill="url(#paint0_linear_1_244)" stroke="url(#paint1_linear_1_244)"/>
<g filter="url(#filter0_d_1_244)">
<path fill-rule="evenodd" clip-rule="evenodd" d="M45.2143 104.256L100 11.7356L154.786 104.256L100 135.05L45.2143 104.256Z" fill="url(#paint2_linear_1_244)"/>
<path d="M100 134.476L45.9051 104.07L100 12.7169L154.095 104.07L100 134.476Z" stroke="url(#paint3_linear_1_244)"/>
</g>
<g filter="url(#filter1_d_1_244)">
<path fill-rule="evenodd" clip-rule="evenodd" d="M100 111.057V97.1606L80 85.3757L100 111.057Z" fill="white"/>
<path fill-rule="evenodd" clip-rule="evenodd" d="M100 111.057V97.1606L120 85.3757L100 111.057Z" fill="#DBE1DC"/>
<path fill-rule="evenodd" clip-rule="evenodd" d="M100 48.1606L100 92.0566L80 80.8415L100 48.1606Z" fill="white"/>
<path fill-rule="evenodd" clip-rule="evenodd" d="M100 48.1606L100 92.0566L120 80.8415L100 48.1606Z" fill="#DBE1DC"/>
<path fill-rule="evenodd" clip-rule="evenodd" d="M100 72.1606V92.0566L120 80.8415L100 72.1606Z" fill="#B8C2BA"/>
<path fill-rule="evenodd" clip-rule="evenodd" d="M100 72.1606V92.0566L80 80.8415L100 72.1606Z" fill="#D3DCD5"/>
</g>
<defs>
<filter id="filter0_d_1_244" x="31.2143" y="9.7356" width="157.571" height="171.314" filterUnits="userSpaceOnUse" color-interpolation-filters="sRGB">
<feFlood flood-opacity="0" result="BackgroundImageFix"/>
<feColorMatrix in="SourceAlpha" type="matrix" values="0 0 0 0 0 0 0 0 0 0 0 0 0 0 0 0 0 0 127 0" result="hardAlpha"/>
<feOffset dx="10" dy="22"/>
<feGaussianBlur stdDeviation="12"/>
<feColorMatrix type="matrix" values="0 0 0 0 0 0 0 0 0 0 0 0 0 0 0 0 0 0 0.2 0"/>
<feBlend mode="normal" in2="BackgroundImageFix" result="effect1_dropShadow_1_244"/>
<feBlend mode="normal" in="SourceGraphic" in2="effect1_dropShadow_1_244" result="shape"/>
</filter>
<filter id="filter1_d_1_244" x="76" y="46.1606" width="68" height="90.8959" filterUnits="userSpaceOnUse" color-interpolation-filters="sRGB">
<feFlood flood-opacity="0" result="BackgroundImageFix"/>
<feColorMatrix in="SourceAlpha" type="matrix" values="0 0 0 0 0 0 0 0 0 0 0 0 0 0 0 0 0 0 127 0" result="hardAlpha"/>
<feOffset dx="10" dy="12"/>
<feGaussianBlur stdDeviation="7"/>
<feColorMatrix type="matrix" values="0 0 0 0 0 0 0 0 0 0 0 0 0 0 0 0 0 0 0.3 0"/>
<feBlend mode="normal" in2="BackgroundImageFix" result="effect1_dropShadow_1_244"/>
<feBlend mode="normal" in="SourceGraphic" in2="effect1_dropShadow_1_244" result="shape"/>
</filter>
<linearGradient id="paint0_linear_1_244" x1="35" y1="0.5" x2="35" y2="143.5" gradientUnits="userSpaceOnUse">
<stop stop-color="#4E553D"/>
<stop offset="0.466569" stop-color="#495A46" stop-opacity="0.52"/>
<stop offset="1" stop-color="#436051" stop-opacity="0.4"/>
</linearGradient>
<linearGradient id="paint1_linear_1_244" x1="35" y1="0.5" x2="35" y2="143.5" gradientUnits="userSpaceOnUse">
<stop stop-color="white" stop-opacity="0.4"/>
<stop offset="0.332697" stop-color="white" stop-opacity="0.01"/>
<stop offset="0.695731" stop-color="white" stop-opacity="0.01"/>
<stop offset="1" stop-color="white" stop-opacity="0.4"/>
</linearGradient>
<linearGradient id="paint2_linear_1_244" x1="45.2143" y1="11.7356" x2="45.2143" y2="135.05" gradientUnits="userSpaceOnUse">
<stop stop-color="#4E553D"/>
<stop offset="0.466569" stop-color="#495A46" stop-opacity="0.52"/>
<stop offset="1" stop-color="#436051" stop-opacity="0.4"/>
</linearGradient>
<linearGradient id="paint3_linear_1_244" x1="45.2143" y1="11.7356" x2="45.2143" y2="135.05" gradientUnits="userSpaceOnUse">
<stop stop-color="white" stop-opacity="0.4"/>
<stop offset="0.332697" stop-color="white" stop-opacity="0.01"/>
<stop offset="0.695731" stop-color="white" stop-opacity="0.01"/>
<stop offset="1" stop-color="white" stop-opacity="0.4"/>
</linearGradient>
</defs>
</svg>
