<svg width="40" height="40" viewBox="0 0 40 40" fill="none" xmlns="http://www.w3.org/2000/svg">
<path opacity="0.6" fill-rule="evenodd" clip-rule="evenodd" d="M0 20C0 8.97117 8.97117 0 20 0C31.0288 0 40 8.97117 40 20C40 31.0288 31.0288 40 20 40C8.97117 40 0 31.0288 0 20ZM1.6 20C1.6 30.1456 9.85437 38.4 20 38.4C30.1456 38.4 38.4 30.1456 38.4 20C38.4 9.85437 30.1456 1.6 20 1.6C9.85437 1.6 1.6 9.85437 1.6 20ZM20 30.4C20.8837 30.4 21.6 29.6837 21.6 28.8C21.6 27.9163 20.8837 27.2 20 27.2C19.1163 27.2 18.4 27.9163 18.4 28.8C18.4 29.6837 19.1163 30.4 20 30.4ZM21.008 9.68797C23.2624 10.0848 25.1136 11.936 25.5088 14.1904C25.928 16.5728 24.7984 18.9504 22.6977 20.1055C21.509 20.7616 20.797 21.8655 20.797 23.0591V24.7999C20.8002 25.2415 20.4417 25.5999 20.0002 25.5999C19.5586 25.5999 19.2002 25.2415 19.2002 24.7999V23.1999C19.2002 21.2752 20.2193 19.648 21.9281 18.7055C23.4529 17.8672 24.2401 16.2031 23.9361 14.4688C23.6529 12.8655 22.3361 11.5471 20.7329 11.2655C19.5265 11.0527 18.352 11.3631 17.4305 12.1359C16.5217 12.8975 16.0001 14.0143 16.0001 15.1999C16.0001 15.6415 15.6416 15.9999 15.2001 15.9999C14.7585 15.9999 14.4001 15.6415 14.4001 15.1999C14.4001 13.5408 15.1297 11.9776 16.4001 10.9087C17.6688 9.84156 19.3456 9.3968 21.008 9.68797Z" fill="white"/>
</svg>
