<svg width="130" height="144" viewBox="0 0 130 144" fill="none" xmlns="http://www.w3.org/2000/svg">
<path opacity="0.5" d="M65 142.926L0.696864 106.783L65 1.45953L129.303 106.783L65 142.926Z" fill="url(#paint0_linear_154_398)" stroke="url(#paint1_linear_154_398)"/>
<path d="M65 134.476L10.9051 104.071L65 12.717L119.095 104.071L65 134.476Z" fill="url(#paint2_linear_154_398)" stroke="url(#paint3_linear_154_398)"/>
<g filter="url(#filter0_d_154_398)">
<path fill-rule="evenodd" clip-rule="evenodd" d="M65 111.056V97.1606L45 85.3757L65 111.056Z" fill="white"/>
<path fill-rule="evenodd" clip-rule="evenodd" d="M65 111.056V97.1606L85 85.3757L65 111.056Z" fill="#DBE1DC"/>
<path fill-rule="evenodd" clip-rule="evenodd" d="M65 48.1606L65 92.0565L45 80.8414L65 48.1606Z" fill="white"/>
<path fill-rule="evenodd" clip-rule="evenodd" d="M65 48.1606L65 92.0565L85 80.8414L65 48.1606Z" fill="#DBE1DC"/>
<path fill-rule="evenodd" clip-rule="evenodd" d="M65 72.1606V92.0565L85 80.8414L65 72.1606Z" fill="#B8C2BA"/>
<path fill-rule="evenodd" clip-rule="evenodd" d="M65 72.1606V92.0565L45 80.8414L65 72.1606Z" fill="#D3DCD5"/>
</g>
<defs>
<filter id="filter0_d_154_398" x="41" y="46.1606" width="68" height="90.8959" filterUnits="userSpaceOnUse" color-interpolation-filters="sRGB">
<feFlood flood-opacity="0" result="BackgroundImageFix"/>
<feColorMatrix in="SourceAlpha" type="matrix" values="0 0 0 0 0 0 0 0 0 0 0 0 0 0 0 0 0 0 127 0" result="hardAlpha"/>
<feOffset dx="10" dy="12"/>
<feGaussianBlur stdDeviation="7"/>
<feColorMatrix type="matrix" values="0 0 0 0 0 0 0 0 0 0 0 0 0 0 0 0 0 0 0.3 0"/>
<feBlend mode="normal" in2="BackgroundImageFix" result="effect1_dropShadow_154_398"/>
<feBlend mode="normal" in="SourceGraphic" in2="effect1_dropShadow_154_398" result="shape"/>
</filter>
<linearGradient id="paint0_linear_154_398" x1="0" y1="0.5" x2="0" y2="143.5" gradientUnits="userSpaceOnUse">
<stop stop-color="#4E553D"/>
<stop offset="0.466569" stop-color="#495A46" stop-opacity="0.52"/>
<stop offset="1" stop-color="#436051" stop-opacity="0.4"/>
</linearGradient>
<linearGradient id="paint1_linear_154_398" x1="0" y1="0.5" x2="0" y2="143.5" gradientUnits="userSpaceOnUse">
<stop stop-color="white" stop-opacity="0.4"/>
<stop offset="0.332697" stop-color="white" stop-opacity="0.01"/>
<stop offset="0.695731" stop-color="white" stop-opacity="0.01"/>
<stop offset="1" stop-color="white" stop-opacity="0.4"/>
</linearGradient>
<linearGradient id="paint2_linear_154_398" x1="10.2143" y1="11.7357" x2="10.2143" y2="135.05" gradientUnits="userSpaceOnUse">
<stop stop-color="#4E553D"/>
<stop offset="0.466569" stop-color="#495A46" stop-opacity="0.52"/>
<stop offset="1" stop-color="#436051" stop-opacity="0.4"/>
</linearGradient>
<linearGradient id="paint3_linear_154_398" x1="10.2143" y1="11.7357" x2="10.2143" y2="135.05" gradientUnits="userSpaceOnUse">
<stop stop-color="white" stop-opacity="0.4"/>
<stop offset="0.332697" stop-color="white" stop-opacity="0.01"/>
<stop offset="0.695731" stop-color="white" stop-opacity="0.01"/>
<stop offset="1" stop-color="white" stop-opacity="0.4"/>
</linearGradient>
</defs>
</svg>
